{
    "asset" : {
        "generator" : "Khronos glTF Blender I/O v1.3.48",
        "version" : "2.0"
    },
    "scene" : 0,
    "scenes" : [
        {
            "name" : "Scene",
            "nodes" : [
                0
            ]
        }
    ],
    "nodes" : [
        {
            "mesh" : 0,
            "name" : "Saloon",
            "translation" : [
                0,
                -0.05000000074505806,
                0
            ]
        }
    ],
    "meshes" : [
        {
            "name" : "Plane.002",
            "primitives" : [
                {
                    "attributes" : {
                        "POSITION" : 0,
                        "NORMAL" : 1,
                        "TEXCOORD_0" : 2
                    },
                    "indices" : 3
                }
            ]
        }
    ],
    "accessors" : [
        {
            "bufferView" : 0,
            "componentType" : 5126,
            "count" : 4811,
            "max" : [
                1.6012402772903442,
                1.322553038597107,
                1.543280005455017
            ],
            "min" : [
                -1.6012402772903442,
                0,
                -1.2840003967285156
            ],
            "type" : "VEC3"
        },
        {
            "bufferView" : 1,
            "componentType" : 5126,
            "count" : 4811,
            "type" : "VEC3"
        },
        {
            "bufferView" : 2,
            "componentType" : 5126,
            "count" : 4811,
            "type" : "VEC2"
        },
        {
            "bufferView" : 3,
            "componentType" : 5123,
            "count" : 7572,
            "type" : "SCALAR"
        }
    ],
    "bufferViews" : [
        {
            "buffer" : 0,
            "byteLength" : 57732,
            "byteOffset" : 0
        },
        {
            "buffer" : 0,
            "byteLength" : 57732,
            "byteOffset" : 57732
        },
        {
            "buffer" : 0,
            "byteLength" : 38488,
            "byteOffset" : 115464
        },
        {
            "buffer" : 0,
            "byteLength" : 15144,
            "byteOffset" : 153952
        }
    ],
    "buffers" : [
        {
            "byteLength" : 169096,
            "uri" : "data:application/octet-stream;base64,"
        }
    ]
}
